%TF.GenerationSoftware,KiCad,Pcbnew,(7.0.0)*%
%TF.CreationDate,2023-03-05T15:13:50+10:30*%
%TF.ProjectId,ProtoBoard,50726f74-6f42-46f6-9172-642e6b696361,rev?*%
%TF.SameCoordinates,Original*%
%TF.FileFunction,Soldermask,Top*%
%TF.FilePolarity,Negative*%
%FSLAX46Y46*%
G04 Gerber Fmt 4.6, Leading zero omitted, Abs format (unit mm)*
G04 Created by KiCad (PCBNEW (7.0.0)) date 2023-03-05 15:13:50*
%MOMM*%
%LPD*%
G01*
G04 APERTURE LIST*
G04 Aperture macros list*
%AMRoundRect*
0 Rectangle with rounded corners*
0 $1 Rounding radius*
0 $2 $3 $4 $5 $6 $7 $8 $9 X,Y pos of 4 corners*
0 Add a 4 corners polygon primitive as box body*
4,1,4,$2,$3,$4,$5,$6,$7,$8,$9,$2,$3,0*
0 Add four circle primitives for the rounded corners*
1,1,$1+$1,$2,$3*
1,1,$1+$1,$4,$5*
1,1,$1+$1,$6,$7*
1,1,$1+$1,$8,$9*
0 Add four rect primitives between the rounded corners*
20,1,$1+$1,$2,$3,$4,$5,0*
20,1,$1+$1,$4,$5,$6,$7,0*
20,1,$1+$1,$6,$7,$8,$9,0*
20,1,$1+$1,$8,$9,$2,$3,0*%
G04 Aperture macros list end*
%ADD10C,1.600000*%
%ADD11R,1.600000X1.600000*%
%ADD12O,1.600000X1.600000*%
%ADD13R,1.700000X1.700000*%
%ADD14RoundRect,0.250000X-0.600000X-0.600000X0.600000X-0.600000X0.600000X0.600000X-0.600000X0.600000X0*%
%ADD15C,1.700000*%
%ADD16O,1.700000X1.700000*%
%ADD17C,5.000000*%
%ADD18R,1.800000X1.800000*%
%ADD19C,1.800000*%
G04 APERTURE END LIST*
D10*
%TO.C,G8*%
X156083000Y-74168000D03*
X156083000Y-76708000D03*
X156083000Y-79248000D03*
X156083000Y-81788000D03*
X156083000Y-84328000D03*
X156083000Y-86868000D03*
X156083000Y-89408000D03*
X156083000Y-91948000D03*
X158623000Y-74168000D03*
X158623000Y-76708000D03*
X158623000Y-79248000D03*
X158623000Y-81788000D03*
X158623000Y-84328000D03*
X158623000Y-86868000D03*
X158623000Y-89408000D03*
X158623000Y-91948000D03*
X161163000Y-74168000D03*
X161163000Y-76708000D03*
X161163000Y-79248000D03*
X161163000Y-81788000D03*
X161163000Y-84328000D03*
X161163000Y-86868000D03*
X161163000Y-89408000D03*
X161163000Y-91948000D03*
X163703000Y-74168000D03*
X163703000Y-76708000D03*
X163703000Y-79248000D03*
X163703000Y-81788000D03*
X163703000Y-84328000D03*
X163703000Y-86868000D03*
X163703000Y-89408000D03*
X163703000Y-91948000D03*
X166243000Y-74168000D03*
X166243000Y-76708000D03*
X166243000Y-79248000D03*
X166243000Y-81788000D03*
X166243000Y-84328000D03*
X166243000Y-86868000D03*
X166243000Y-89408000D03*
X166243000Y-91948000D03*
X168783000Y-74168000D03*
X168783000Y-76708000D03*
X168783000Y-79248000D03*
X168783000Y-81788000D03*
X168783000Y-84328000D03*
X168783000Y-86868000D03*
X168783000Y-89408000D03*
X168783000Y-91948000D03*
X171323000Y-74168000D03*
X171323000Y-76708000D03*
X171323000Y-79248000D03*
X171323000Y-81788000D03*
X171323000Y-84328000D03*
X171323000Y-86868000D03*
X171323000Y-89408000D03*
X171323000Y-91948000D03*
X173863000Y-74168000D03*
X173863000Y-76708000D03*
X173863000Y-79248000D03*
X173863000Y-81788000D03*
X173863000Y-84328000D03*
X173863000Y-86868000D03*
X173863000Y-89408000D03*
X173863000Y-91948000D03*
%TD*%
%TO.C,G9*%
X95123000Y-94488000D03*
X95123000Y-97028000D03*
X95123000Y-99568000D03*
X95123000Y-102108000D03*
X95123000Y-104648000D03*
X95123000Y-107188000D03*
X95123000Y-109728000D03*
X95123000Y-112268000D03*
X97663000Y-94488000D03*
X97663000Y-97028000D03*
X97663000Y-99568000D03*
X97663000Y-102108000D03*
X97663000Y-104648000D03*
X97663000Y-107188000D03*
X97663000Y-109728000D03*
X97663000Y-112268000D03*
X100203000Y-94488000D03*
X100203000Y-97028000D03*
X100203000Y-99568000D03*
X100203000Y-102108000D03*
X100203000Y-104648000D03*
X100203000Y-107188000D03*
X100203000Y-109728000D03*
X100203000Y-112268000D03*
X102743000Y-94488000D03*
X102743000Y-97028000D03*
X102743000Y-99568000D03*
X102743000Y-102108000D03*
X102743000Y-104648000D03*
X102743000Y-107188000D03*
X102743000Y-109728000D03*
X102743000Y-112268000D03*
X105283000Y-94488000D03*
X105283000Y-97028000D03*
X105283000Y-99568000D03*
X105283000Y-102108000D03*
X105283000Y-104648000D03*
X105283000Y-107188000D03*
X105283000Y-109728000D03*
X105283000Y-112268000D03*
X107823000Y-94488000D03*
X107823000Y-97028000D03*
X107823000Y-99568000D03*
X107823000Y-102108000D03*
X107823000Y-104648000D03*
X107823000Y-107188000D03*
X107823000Y-109728000D03*
X107823000Y-112268000D03*
X110363000Y-94488000D03*
X110363000Y-97028000D03*
X110363000Y-99568000D03*
X110363000Y-102108000D03*
X110363000Y-104648000D03*
X110363000Y-107188000D03*
X110363000Y-109728000D03*
X110363000Y-112268000D03*
X112903000Y-94488000D03*
X112903000Y-97028000D03*
X112903000Y-99568000D03*
X112903000Y-102108000D03*
X112903000Y-104648000D03*
X112903000Y-107188000D03*
X112903000Y-109728000D03*
X112903000Y-112268000D03*
%TD*%
D11*
%TO.C,U1*%
X185226799Y-109732999D03*
D12*
X185226799Y-112272999D03*
X185226799Y-114812999D03*
X185226799Y-117352999D03*
X185226799Y-119892999D03*
X185226799Y-122432999D03*
X185226799Y-124972999D03*
X185226799Y-127512999D03*
X185226799Y-130052999D03*
X185226799Y-132592999D03*
X192846799Y-132592999D03*
X192846799Y-130052999D03*
X192846799Y-127512999D03*
X192846799Y-124972999D03*
X192846799Y-122432999D03*
X192846799Y-119892999D03*
X192846799Y-117352999D03*
X192846799Y-114812999D03*
X192846799Y-112272999D03*
X192846799Y-109732999D03*
%TD*%
D10*
%TO.C,G4*%
X156083000Y-53848000D03*
X156083000Y-56388000D03*
X156083000Y-58928000D03*
X156083000Y-61468000D03*
X156083000Y-64008000D03*
X156083000Y-66548000D03*
X156083000Y-69088000D03*
X156083000Y-71628000D03*
X158623000Y-53848000D03*
X158623000Y-56388000D03*
X158623000Y-58928000D03*
X158623000Y-61468000D03*
X158623000Y-64008000D03*
X158623000Y-66548000D03*
X158623000Y-69088000D03*
X158623000Y-71628000D03*
X161163000Y-53848000D03*
X161163000Y-56388000D03*
X161163000Y-58928000D03*
X161163000Y-61468000D03*
X161163000Y-64008000D03*
X161163000Y-66548000D03*
X161163000Y-69088000D03*
X161163000Y-71628000D03*
X163703000Y-53848000D03*
X163703000Y-56388000D03*
X163703000Y-58928000D03*
X163703000Y-61468000D03*
X163703000Y-64008000D03*
X163703000Y-66548000D03*
X163703000Y-69088000D03*
X163703000Y-71628000D03*
X166243000Y-53848000D03*
X166243000Y-56388000D03*
X166243000Y-58928000D03*
X166243000Y-61468000D03*
X166243000Y-64008000D03*
X166243000Y-66548000D03*
X166243000Y-69088000D03*
X166243000Y-71628000D03*
X168783000Y-53848000D03*
X168783000Y-56388000D03*
X168783000Y-58928000D03*
X168783000Y-61468000D03*
X168783000Y-64008000D03*
X168783000Y-66548000D03*
X168783000Y-69088000D03*
X168783000Y-71628000D03*
X171323000Y-53848000D03*
X171323000Y-56388000D03*
X171323000Y-58928000D03*
X171323000Y-61468000D03*
X171323000Y-64008000D03*
X171323000Y-66548000D03*
X171323000Y-69088000D03*
X171323000Y-71628000D03*
X173863000Y-53848000D03*
X173863000Y-56388000D03*
X173863000Y-58928000D03*
X173863000Y-61468000D03*
X173863000Y-64008000D03*
X173863000Y-66548000D03*
X173863000Y-69088000D03*
X173863000Y-71628000D03*
%TD*%
%TO.C,G15*%
X135763000Y-114808000D03*
X135763000Y-117348000D03*
X135763000Y-119888000D03*
X135763000Y-122428000D03*
X135763000Y-124968000D03*
X135763000Y-127508000D03*
X135763000Y-130048000D03*
X135763000Y-132588000D03*
X138303000Y-114808000D03*
X138303000Y-117348000D03*
X138303000Y-119888000D03*
X138303000Y-122428000D03*
X138303000Y-124968000D03*
X138303000Y-127508000D03*
X138303000Y-130048000D03*
X138303000Y-132588000D03*
X140843000Y-114808000D03*
X140843000Y-117348000D03*
X140843000Y-119888000D03*
X140843000Y-122428000D03*
X140843000Y-124968000D03*
X140843000Y-127508000D03*
X140843000Y-130048000D03*
X140843000Y-132588000D03*
X143383000Y-114808000D03*
X143383000Y-117348000D03*
X143383000Y-119888000D03*
X143383000Y-122428000D03*
X143383000Y-124968000D03*
X143383000Y-127508000D03*
X143383000Y-130048000D03*
X143383000Y-132588000D03*
X145923000Y-114808000D03*
X145923000Y-117348000D03*
X145923000Y-119888000D03*
X145923000Y-122428000D03*
X145923000Y-124968000D03*
X145923000Y-127508000D03*
X145923000Y-130048000D03*
X145923000Y-132588000D03*
X148463000Y-114808000D03*
X148463000Y-117348000D03*
X148463000Y-119888000D03*
X148463000Y-122428000D03*
X148463000Y-124968000D03*
X148463000Y-127508000D03*
X148463000Y-130048000D03*
X148463000Y-132588000D03*
X151003000Y-114808000D03*
X151003000Y-117348000D03*
X151003000Y-119888000D03*
X151003000Y-122428000D03*
X151003000Y-124968000D03*
X151003000Y-127508000D03*
X151003000Y-130048000D03*
X151003000Y-132588000D03*
X153543000Y-114808000D03*
X153543000Y-117348000D03*
X153543000Y-119888000D03*
X153543000Y-122428000D03*
X153543000Y-124968000D03*
X153543000Y-127508000D03*
X153543000Y-130048000D03*
X153543000Y-132588000D03*
%TD*%
%TO.C,G11*%
X135763000Y-94488000D03*
X135763000Y-97028000D03*
X135763000Y-99568000D03*
X135763000Y-102108000D03*
X135763000Y-104648000D03*
X135763000Y-107188000D03*
X135763000Y-109728000D03*
X135763000Y-112268000D03*
X138303000Y-94488000D03*
X138303000Y-97028000D03*
X138303000Y-99568000D03*
X138303000Y-102108000D03*
X138303000Y-104648000D03*
X138303000Y-107188000D03*
X138303000Y-109728000D03*
X138303000Y-112268000D03*
X140843000Y-94488000D03*
X140843000Y-97028000D03*
X140843000Y-99568000D03*
X140843000Y-102108000D03*
X140843000Y-104648000D03*
X140843000Y-107188000D03*
X140843000Y-109728000D03*
X140843000Y-112268000D03*
X143383000Y-94488000D03*
X143383000Y-97028000D03*
X143383000Y-99568000D03*
X143383000Y-102108000D03*
X143383000Y-104648000D03*
X143383000Y-107188000D03*
X143383000Y-109728000D03*
X143383000Y-112268000D03*
X145923000Y-94488000D03*
X145923000Y-97028000D03*
X145923000Y-99568000D03*
X145923000Y-102108000D03*
X145923000Y-104648000D03*
X145923000Y-107188000D03*
X145923000Y-109728000D03*
X145923000Y-112268000D03*
X148463000Y-94488000D03*
X148463000Y-97028000D03*
X148463000Y-99568000D03*
X148463000Y-102108000D03*
X148463000Y-104648000D03*
X148463000Y-107188000D03*
X148463000Y-109728000D03*
X148463000Y-112268000D03*
X151003000Y-94488000D03*
X151003000Y-97028000D03*
X151003000Y-99568000D03*
X151003000Y-102108000D03*
X151003000Y-104648000D03*
X151003000Y-107188000D03*
X151003000Y-109728000D03*
X151003000Y-112268000D03*
X153543000Y-94488000D03*
X153543000Y-97028000D03*
X153543000Y-99568000D03*
X153543000Y-102108000D03*
X153543000Y-104648000D03*
X153543000Y-107188000D03*
X153543000Y-109728000D03*
X153543000Y-112268000D03*
%TD*%
D13*
%TO.C,J2*%
X185927999Y-138937999D03*
%TD*%
D14*
%TO.C,J1*%
X201168000Y-80518000D03*
D15*
X201168000Y-83058000D03*
X201168000Y-85598000D03*
X201168000Y-88138000D03*
X201168000Y-90678000D03*
X201168000Y-93218000D03*
X201168000Y-95758000D03*
X201168000Y-98298000D03*
X201168000Y-100838000D03*
X201168000Y-103378000D03*
X201168000Y-105918000D03*
X201168000Y-108458000D03*
X201168000Y-110998000D03*
X201168000Y-113538000D03*
X201168000Y-116078000D03*
X201168000Y-118618000D03*
X201168000Y-121158000D03*
X201168000Y-123698000D03*
X201168000Y-126238000D03*
X201168000Y-128778000D03*
X203708000Y-128778000D03*
X203708000Y-126238000D03*
X203708000Y-123698000D03*
X203708000Y-121158000D03*
X203708000Y-118618000D03*
X203708000Y-116078000D03*
X203708000Y-113538000D03*
X203708000Y-110998000D03*
X203708000Y-108458000D03*
X203708000Y-105918000D03*
X203708000Y-103378000D03*
X203708000Y-100838000D03*
X203708000Y-98298000D03*
X203708000Y-95758000D03*
X203708000Y-93218000D03*
X203708000Y-90678000D03*
X203708000Y-88138000D03*
X203708000Y-85598000D03*
X203708000Y-83058000D03*
X203708000Y-80518000D03*
%TD*%
D10*
%TO.C,R2*%
X198374000Y-53721000D03*
D12*
X198373999Y-63880999D03*
%TD*%
D13*
%TO.C,J4*%
X198637999Y-68452999D03*
D16*
X201177999Y-68452999D03*
X203717999Y-68452999D03*
X206257999Y-68452999D03*
%TD*%
D10*
%TO.C,G5*%
X95123000Y-74168000D03*
X95123000Y-76708000D03*
X95123000Y-79248000D03*
X95123000Y-81788000D03*
X95123000Y-84328000D03*
X95123000Y-86868000D03*
X95123000Y-89408000D03*
X95123000Y-91948000D03*
X97663000Y-74168000D03*
X97663000Y-76708000D03*
X97663000Y-79248000D03*
X97663000Y-81788000D03*
X97663000Y-84328000D03*
X97663000Y-86868000D03*
X97663000Y-89408000D03*
X97663000Y-91948000D03*
X100203000Y-74168000D03*
X100203000Y-76708000D03*
X100203000Y-79248000D03*
X100203000Y-81788000D03*
X100203000Y-84328000D03*
X100203000Y-86868000D03*
X100203000Y-89408000D03*
X100203000Y-91948000D03*
X102743000Y-74168000D03*
X102743000Y-76708000D03*
X102743000Y-79248000D03*
X102743000Y-81788000D03*
X102743000Y-84328000D03*
X102743000Y-86868000D03*
X102743000Y-89408000D03*
X102743000Y-91948000D03*
X105283000Y-74168000D03*
X105283000Y-76708000D03*
X105283000Y-79248000D03*
X105283000Y-81788000D03*
X105283000Y-84328000D03*
X105283000Y-86868000D03*
X105283000Y-89408000D03*
X105283000Y-91948000D03*
X107823000Y-74168000D03*
X107823000Y-76708000D03*
X107823000Y-79248000D03*
X107823000Y-81788000D03*
X107823000Y-84328000D03*
X107823000Y-86868000D03*
X107823000Y-89408000D03*
X107823000Y-91948000D03*
X110363000Y-74168000D03*
X110363000Y-76708000D03*
X110363000Y-79248000D03*
X110363000Y-81788000D03*
X110363000Y-84328000D03*
X110363000Y-86868000D03*
X110363000Y-89408000D03*
X110363000Y-91948000D03*
X112903000Y-74168000D03*
X112903000Y-76708000D03*
X112903000Y-79248000D03*
X112903000Y-81788000D03*
X112903000Y-84328000D03*
X112903000Y-86868000D03*
X112903000Y-89408000D03*
X112903000Y-91948000D03*
%TD*%
%TO.C,G14*%
X115443000Y-114808000D03*
X115443000Y-117348000D03*
X115443000Y-119888000D03*
X115443000Y-122428000D03*
X115443000Y-124968000D03*
X115443000Y-127508000D03*
X115443000Y-130048000D03*
X115443000Y-132588000D03*
X117983000Y-114808000D03*
X117983000Y-117348000D03*
X117983000Y-119888000D03*
X117983000Y-122428000D03*
X117983000Y-124968000D03*
X117983000Y-127508000D03*
X117983000Y-130048000D03*
X117983000Y-132588000D03*
X120523000Y-114808000D03*
X120523000Y-117348000D03*
X120523000Y-119888000D03*
X120523000Y-122428000D03*
X120523000Y-124968000D03*
X120523000Y-127508000D03*
X120523000Y-130048000D03*
X120523000Y-132588000D03*
X123063000Y-114808000D03*
X123063000Y-117348000D03*
X123063000Y-119888000D03*
X123063000Y-122428000D03*
X123063000Y-124968000D03*
X123063000Y-127508000D03*
X123063000Y-130048000D03*
X123063000Y-132588000D03*
X125603000Y-114808000D03*
X125603000Y-117348000D03*
X125603000Y-119888000D03*
X125603000Y-122428000D03*
X125603000Y-124968000D03*
X125603000Y-127508000D03*
X125603000Y-130048000D03*
X125603000Y-132588000D03*
X128143000Y-114808000D03*
X128143000Y-117348000D03*
X128143000Y-119888000D03*
X128143000Y-122428000D03*
X128143000Y-124968000D03*
X128143000Y-127508000D03*
X128143000Y-130048000D03*
X128143000Y-132588000D03*
X130683000Y-114808000D03*
X130683000Y-117348000D03*
X130683000Y-119888000D03*
X130683000Y-122428000D03*
X130683000Y-124968000D03*
X130683000Y-127508000D03*
X130683000Y-130048000D03*
X130683000Y-132588000D03*
X133223000Y-114808000D03*
X133223000Y-117348000D03*
X133223000Y-119888000D03*
X133223000Y-122428000D03*
X133223000Y-124968000D03*
X133223000Y-127508000D03*
X133223000Y-130048000D03*
X133223000Y-132588000D03*
%TD*%
D13*
%TO.C,J8*%
X162905199Y-138937999D03*
D16*
X165445199Y-138937999D03*
X167985199Y-138937999D03*
X170525199Y-138937999D03*
X173065199Y-138937999D03*
X175605199Y-138937999D03*
X178145199Y-138937999D03*
X180685199Y-138937999D03*
%TD*%
D17*
%TO.C,H2*%
X91313000Y-138938000D03*
%TD*%
%TO.C,H1*%
X205359000Y-138938000D03*
%TD*%
D10*
%TO.C,G7*%
X135763000Y-74168000D03*
X135763000Y-76708000D03*
X135763000Y-79248000D03*
X135763000Y-81788000D03*
X135763000Y-84328000D03*
X135763000Y-86868000D03*
X135763000Y-89408000D03*
X135763000Y-91948000D03*
X138303000Y-74168000D03*
X138303000Y-76708000D03*
X138303000Y-79248000D03*
X138303000Y-81788000D03*
X138303000Y-84328000D03*
X138303000Y-86868000D03*
X138303000Y-89408000D03*
X138303000Y-91948000D03*
X140843000Y-74168000D03*
X140843000Y-76708000D03*
X140843000Y-79248000D03*
X140843000Y-81788000D03*
X140843000Y-84328000D03*
X140843000Y-86868000D03*
X140843000Y-89408000D03*
X140843000Y-91948000D03*
X143383000Y-74168000D03*
X143383000Y-76708000D03*
X143383000Y-79248000D03*
X143383000Y-81788000D03*
X143383000Y-84328000D03*
X143383000Y-86868000D03*
X143383000Y-89408000D03*
X143383000Y-91948000D03*
X145923000Y-74168000D03*
X145923000Y-76708000D03*
X145923000Y-79248000D03*
X145923000Y-81788000D03*
X145923000Y-84328000D03*
X145923000Y-86868000D03*
X145923000Y-89408000D03*
X145923000Y-91948000D03*
X148463000Y-74168000D03*
X148463000Y-76708000D03*
X148463000Y-79248000D03*
X148463000Y-81788000D03*
X148463000Y-84328000D03*
X148463000Y-86868000D03*
X148463000Y-89408000D03*
X148463000Y-91948000D03*
X151003000Y-74168000D03*
X151003000Y-76708000D03*
X151003000Y-79248000D03*
X151003000Y-81788000D03*
X151003000Y-84328000D03*
X151003000Y-86868000D03*
X151003000Y-89408000D03*
X151003000Y-91948000D03*
X153543000Y-74168000D03*
X153543000Y-76708000D03*
X153543000Y-79248000D03*
X153543000Y-81788000D03*
X153543000Y-84328000D03*
X153543000Y-86868000D03*
X153543000Y-89408000D03*
X153543000Y-91948000D03*
%TD*%
%TO.C,G6*%
X115443000Y-74168000D03*
X115443000Y-76708000D03*
X115443000Y-79248000D03*
X115443000Y-81788000D03*
X115443000Y-84328000D03*
X115443000Y-86868000D03*
X115443000Y-89408000D03*
X115443000Y-91948000D03*
X117983000Y-74168000D03*
X117983000Y-76708000D03*
X117983000Y-79248000D03*
X117983000Y-81788000D03*
X117983000Y-84328000D03*
X117983000Y-86868000D03*
X117983000Y-89408000D03*
X117983000Y-91948000D03*
X120523000Y-74168000D03*
X120523000Y-76708000D03*
X120523000Y-79248000D03*
X120523000Y-81788000D03*
X120523000Y-84328000D03*
X120523000Y-86868000D03*
X120523000Y-89408000D03*
X120523000Y-91948000D03*
X123063000Y-74168000D03*
X123063000Y-76708000D03*
X123063000Y-79248000D03*
X123063000Y-81788000D03*
X123063000Y-84328000D03*
X123063000Y-86868000D03*
X123063000Y-89408000D03*
X123063000Y-91948000D03*
X125603000Y-74168000D03*
X125603000Y-76708000D03*
X125603000Y-79248000D03*
X125603000Y-81788000D03*
X125603000Y-84328000D03*
X125603000Y-86868000D03*
X125603000Y-89408000D03*
X125603000Y-91948000D03*
X128143000Y-74168000D03*
X128143000Y-76708000D03*
X128143000Y-79248000D03*
X128143000Y-81788000D03*
X128143000Y-84328000D03*
X128143000Y-86868000D03*
X128143000Y-89408000D03*
X128143000Y-91948000D03*
X130683000Y-74168000D03*
X130683000Y-76708000D03*
X130683000Y-79248000D03*
X130683000Y-81788000D03*
X130683000Y-84328000D03*
X130683000Y-86868000D03*
X130683000Y-89408000D03*
X130683000Y-91948000D03*
X133223000Y-74168000D03*
X133223000Y-76708000D03*
X133223000Y-79248000D03*
X133223000Y-81788000D03*
X133223000Y-84328000D03*
X133223000Y-86868000D03*
X133223000Y-89408000D03*
X133223000Y-91948000D03*
%TD*%
D17*
%TO.C,H3*%
X205613000Y-50038000D03*
%TD*%
%TO.C,H4*%
X91313000Y-50038000D03*
%TD*%
D13*
%TO.C,J7*%
X137032999Y-138937999D03*
D16*
X139572999Y-138937999D03*
X142112999Y-138937999D03*
X144652999Y-138937999D03*
X147192999Y-138937999D03*
X149732999Y-138937999D03*
X152272999Y-138937999D03*
X154812999Y-138937999D03*
%TD*%
D13*
%TO.C,J6*%
X180111399Y-84292199D03*
D16*
X180111399Y-86832199D03*
X180111399Y-89372199D03*
X180111399Y-91912199D03*
X180111399Y-94452199D03*
X180111399Y-96992199D03*
X180111399Y-99532199D03*
X180111399Y-102072199D03*
%TD*%
D10*
%TO.C,G2*%
X115443000Y-53848000D03*
X115443000Y-56388000D03*
X115443000Y-58928000D03*
X115443000Y-61468000D03*
X115443000Y-64008000D03*
X115443000Y-66548000D03*
X115443000Y-69088000D03*
X115443000Y-71628000D03*
X117983000Y-53848000D03*
X117983000Y-56388000D03*
X117983000Y-58928000D03*
X117983000Y-61468000D03*
X117983000Y-64008000D03*
X117983000Y-66548000D03*
X117983000Y-69088000D03*
X117983000Y-71628000D03*
X120523000Y-53848000D03*
X120523000Y-56388000D03*
X120523000Y-58928000D03*
X120523000Y-61468000D03*
X120523000Y-64008000D03*
X120523000Y-66548000D03*
X120523000Y-69088000D03*
X120523000Y-71628000D03*
X123063000Y-53848000D03*
X123063000Y-56388000D03*
X123063000Y-58928000D03*
X123063000Y-61468000D03*
X123063000Y-64008000D03*
X123063000Y-66548000D03*
X123063000Y-69088000D03*
X123063000Y-71628000D03*
X125603000Y-53848000D03*
X125603000Y-56388000D03*
X125603000Y-58928000D03*
X125603000Y-61468000D03*
X125603000Y-64008000D03*
X125603000Y-66548000D03*
X125603000Y-69088000D03*
X125603000Y-71628000D03*
X128143000Y-53848000D03*
X128143000Y-56388000D03*
X128143000Y-58928000D03*
X128143000Y-61468000D03*
X128143000Y-64008000D03*
X128143000Y-66548000D03*
X128143000Y-69088000D03*
X128143000Y-71628000D03*
X130683000Y-53848000D03*
X130683000Y-56388000D03*
X130683000Y-58928000D03*
X130683000Y-61468000D03*
X130683000Y-64008000D03*
X130683000Y-66548000D03*
X130683000Y-69088000D03*
X130683000Y-71628000D03*
X133223000Y-53848000D03*
X133223000Y-56388000D03*
X133223000Y-58928000D03*
X133223000Y-61468000D03*
X133223000Y-64008000D03*
X133223000Y-66548000D03*
X133223000Y-69088000D03*
X133223000Y-71628000D03*
%TD*%
D13*
%TO.C,J3*%
X180111399Y-112267999D03*
D16*
X180111399Y-114807999D03*
X180111399Y-117347999D03*
X180111399Y-119887999D03*
X180111399Y-122427999D03*
X180111399Y-124967999D03*
X180111399Y-127507999D03*
X180111399Y-130047999D03*
%TD*%
D10*
%TO.C,G13*%
X95123000Y-114808000D03*
X95123000Y-117348000D03*
X95123000Y-119888000D03*
X95123000Y-122428000D03*
X95123000Y-124968000D03*
X95123000Y-127508000D03*
X95123000Y-130048000D03*
X95123000Y-132588000D03*
X97663000Y-114808000D03*
X97663000Y-117348000D03*
X97663000Y-119888000D03*
X97663000Y-122428000D03*
X97663000Y-124968000D03*
X97663000Y-127508000D03*
X97663000Y-130048000D03*
X97663000Y-132588000D03*
X100203000Y-114808000D03*
X100203000Y-117348000D03*
X100203000Y-119888000D03*
X100203000Y-122428000D03*
X100203000Y-124968000D03*
X100203000Y-127508000D03*
X100203000Y-130048000D03*
X100203000Y-132588000D03*
X102743000Y-114808000D03*
X102743000Y-117348000D03*
X102743000Y-119888000D03*
X102743000Y-122428000D03*
X102743000Y-124968000D03*
X102743000Y-127508000D03*
X102743000Y-130048000D03*
X102743000Y-132588000D03*
X105283000Y-114808000D03*
X105283000Y-117348000D03*
X105283000Y-119888000D03*
X105283000Y-122428000D03*
X105283000Y-124968000D03*
X105283000Y-127508000D03*
X105283000Y-130048000D03*
X105283000Y-132588000D03*
X107823000Y-114808000D03*
X107823000Y-117348000D03*
X107823000Y-119888000D03*
X107823000Y-122428000D03*
X107823000Y-124968000D03*
X107823000Y-127508000D03*
X107823000Y-130048000D03*
X107823000Y-132588000D03*
X110363000Y-114808000D03*
X110363000Y-117348000D03*
X110363000Y-119888000D03*
X110363000Y-122428000D03*
X110363000Y-124968000D03*
X110363000Y-127508000D03*
X110363000Y-130048000D03*
X110363000Y-132588000D03*
X112903000Y-114808000D03*
X112903000Y-117348000D03*
X112903000Y-119888000D03*
X112903000Y-122428000D03*
X112903000Y-124968000D03*
X112903000Y-127508000D03*
X112903000Y-130048000D03*
X112903000Y-132588000D03*
%TD*%
%TO.C,G10*%
X115443000Y-94488000D03*
X115443000Y-97028000D03*
X115443000Y-99568000D03*
X115443000Y-102108000D03*
X115443000Y-104648000D03*
X115443000Y-107188000D03*
X115443000Y-109728000D03*
X115443000Y-112268000D03*
X117983000Y-94488000D03*
X117983000Y-97028000D03*
X117983000Y-99568000D03*
X117983000Y-102108000D03*
X117983000Y-104648000D03*
X117983000Y-107188000D03*
X117983000Y-109728000D03*
X117983000Y-112268000D03*
X120523000Y-94488000D03*
X120523000Y-97028000D03*
X120523000Y-99568000D03*
X120523000Y-102108000D03*
X120523000Y-104648000D03*
X120523000Y-107188000D03*
X120523000Y-109728000D03*
X120523000Y-112268000D03*
X123063000Y-94488000D03*
X123063000Y-97028000D03*
X123063000Y-99568000D03*
X123063000Y-102108000D03*
X123063000Y-104648000D03*
X123063000Y-107188000D03*
X123063000Y-109728000D03*
X123063000Y-112268000D03*
X125603000Y-94488000D03*
X125603000Y-97028000D03*
X125603000Y-99568000D03*
X125603000Y-102108000D03*
X125603000Y-104648000D03*
X125603000Y-107188000D03*
X125603000Y-109728000D03*
X125603000Y-112268000D03*
X128143000Y-94488000D03*
X128143000Y-97028000D03*
X128143000Y-99568000D03*
X128143000Y-102108000D03*
X128143000Y-104648000D03*
X128143000Y-107188000D03*
X128143000Y-109728000D03*
X128143000Y-112268000D03*
X130683000Y-94488000D03*
X130683000Y-97028000D03*
X130683000Y-99568000D03*
X130683000Y-102108000D03*
X130683000Y-104648000D03*
X130683000Y-107188000D03*
X130683000Y-109728000D03*
X130683000Y-112268000D03*
X133223000Y-94488000D03*
X133223000Y-97028000D03*
X133223000Y-99568000D03*
X133223000Y-102108000D03*
X133223000Y-104648000D03*
X133223000Y-107188000D03*
X133223000Y-109728000D03*
X133223000Y-112268000D03*
%TD*%
D13*
%TO.C,J5*%
X180111399Y-56387999D03*
D16*
X180111399Y-58927999D03*
X180111399Y-61467999D03*
X180111399Y-64007999D03*
X180111399Y-66547999D03*
X180111399Y-69087999D03*
X180111399Y-71627999D03*
X180111399Y-74167999D03*
%TD*%
D10*
%TO.C,G12*%
X156083000Y-94488000D03*
X156083000Y-97028000D03*
X156083000Y-99568000D03*
X156083000Y-102108000D03*
X156083000Y-104648000D03*
X156083000Y-107188000D03*
X156083000Y-109728000D03*
X156083000Y-112268000D03*
X158623000Y-94488000D03*
X158623000Y-97028000D03*
X158623000Y-99568000D03*
X158623000Y-102108000D03*
X158623000Y-104648000D03*
X158623000Y-107188000D03*
X158623000Y-109728000D03*
X158623000Y-112268000D03*
X161163000Y-94488000D03*
X161163000Y-97028000D03*
X161163000Y-99568000D03*
X161163000Y-102108000D03*
X161163000Y-104648000D03*
X161163000Y-107188000D03*
X161163000Y-109728000D03*
X161163000Y-112268000D03*
X163703000Y-94488000D03*
X163703000Y-97028000D03*
X163703000Y-99568000D03*
X163703000Y-102108000D03*
X163703000Y-104648000D03*
X163703000Y-107188000D03*
X163703000Y-109728000D03*
X163703000Y-112268000D03*
X166243000Y-94488000D03*
X166243000Y-97028000D03*
X166243000Y-99568000D03*
X166243000Y-102108000D03*
X166243000Y-104648000D03*
X166243000Y-107188000D03*
X166243000Y-109728000D03*
X166243000Y-112268000D03*
X168783000Y-94488000D03*
X168783000Y-97028000D03*
X168783000Y-99568000D03*
X168783000Y-102108000D03*
X168783000Y-104648000D03*
X168783000Y-107188000D03*
X168783000Y-109728000D03*
X168783000Y-112268000D03*
X171323000Y-94488000D03*
X171323000Y-97028000D03*
X171323000Y-99568000D03*
X171323000Y-102108000D03*
X171323000Y-104648000D03*
X171323000Y-107188000D03*
X171323000Y-109728000D03*
X171323000Y-112268000D03*
X173863000Y-94488000D03*
X173863000Y-97028000D03*
X173863000Y-99568000D03*
X173863000Y-102108000D03*
X173863000Y-104648000D03*
X173863000Y-107188000D03*
X173863000Y-109728000D03*
X173863000Y-112268000D03*
%TD*%
%TO.C,G16*%
X156083000Y-114808000D03*
X156083000Y-117348000D03*
X156083000Y-119888000D03*
X156083000Y-122428000D03*
X156083000Y-124968000D03*
X156083000Y-127508000D03*
X156083000Y-130048000D03*
X156083000Y-132588000D03*
X158623000Y-114808000D03*
X158623000Y-117348000D03*
X158623000Y-119888000D03*
X158623000Y-122428000D03*
X158623000Y-124968000D03*
X158623000Y-127508000D03*
X158623000Y-130048000D03*
X158623000Y-132588000D03*
X161163000Y-114808000D03*
X161163000Y-117348000D03*
X161163000Y-119888000D03*
X161163000Y-122428000D03*
X161163000Y-124968000D03*
X161163000Y-127508000D03*
X161163000Y-130048000D03*
X161163000Y-132588000D03*
X163703000Y-114808000D03*
X163703000Y-117348000D03*
X163703000Y-119888000D03*
X163703000Y-122428000D03*
X163703000Y-124968000D03*
X163703000Y-127508000D03*
X163703000Y-130048000D03*
X163703000Y-132588000D03*
X166243000Y-114808000D03*
X166243000Y-117348000D03*
X166243000Y-119888000D03*
X166243000Y-122428000D03*
X166243000Y-124968000D03*
X166243000Y-127508000D03*
X166243000Y-130048000D03*
X166243000Y-132588000D03*
X168783000Y-114808000D03*
X168783000Y-117348000D03*
X168783000Y-119888000D03*
X168783000Y-122428000D03*
X168783000Y-124968000D03*
X168783000Y-127508000D03*
X168783000Y-130048000D03*
X168783000Y-132588000D03*
X171323000Y-114808000D03*
X171323000Y-117348000D03*
X171323000Y-119888000D03*
X171323000Y-122428000D03*
X171323000Y-124968000D03*
X171323000Y-127508000D03*
X171323000Y-130048000D03*
X171323000Y-132588000D03*
X173863000Y-114808000D03*
X173863000Y-117348000D03*
X173863000Y-119888000D03*
X173863000Y-122428000D03*
X173863000Y-124968000D03*
X173863000Y-127508000D03*
X173863000Y-130048000D03*
X173863000Y-132588000D03*
%TD*%
D18*
%TO.C,D1*%
X204088999Y-60070999D03*
D19*
X204089000Y-57531000D03*
%TD*%
D10*
%TO.C,R1*%
X189992000Y-138938000D03*
D12*
X200151999Y-138937999D03*
%TD*%
D11*
%TO.C,U2*%
X185226799Y-53852999D03*
D12*
X185226799Y-56392999D03*
X185226799Y-58932999D03*
X185226799Y-61472999D03*
X185226799Y-64012999D03*
X185226799Y-66552999D03*
X185226799Y-69092999D03*
X185226799Y-71632999D03*
X185226799Y-74172999D03*
X185226799Y-76712999D03*
X192846799Y-76712999D03*
X192846799Y-74172999D03*
X192846799Y-71632999D03*
X192846799Y-69092999D03*
X192846799Y-66552999D03*
X192846799Y-64012999D03*
X192846799Y-61472999D03*
X192846799Y-58932999D03*
X192846799Y-56392999D03*
X192846799Y-53852999D03*
%TD*%
D11*
%TO.C,U3*%
X185226799Y-81767599D03*
D12*
X185226799Y-84307599D03*
X185226799Y-86847599D03*
X185226799Y-89387599D03*
X185226799Y-91927599D03*
X185226799Y-94467599D03*
X185226799Y-97007599D03*
X185226799Y-99547599D03*
X185226799Y-102087599D03*
X185226799Y-104627599D03*
X192846799Y-104627599D03*
X192846799Y-102087599D03*
X192846799Y-99547599D03*
X192846799Y-97007599D03*
X192846799Y-94467599D03*
X192846799Y-91927599D03*
X192846799Y-89387599D03*
X192846799Y-86847599D03*
X192846799Y-84307599D03*
X192846799Y-81767599D03*
%TD*%
D10*
%TO.C,G1*%
X95123000Y-53848000D03*
X95123000Y-56388000D03*
X95123000Y-58928000D03*
X95123000Y-61468000D03*
X95123000Y-64008000D03*
X95123000Y-66548000D03*
X95123000Y-69088000D03*
X95123000Y-71628000D03*
X97663000Y-53848000D03*
X97663000Y-56388000D03*
X97663000Y-58928000D03*
X97663000Y-61468000D03*
X97663000Y-64008000D03*
X97663000Y-66548000D03*
X97663000Y-69088000D03*
X97663000Y-71628000D03*
X100203000Y-53848000D03*
X100203000Y-56388000D03*
X100203000Y-58928000D03*
X100203000Y-61468000D03*
X100203000Y-64008000D03*
X100203000Y-66548000D03*
X100203000Y-69088000D03*
X100203000Y-71628000D03*
X102743000Y-53848000D03*
X102743000Y-56388000D03*
X102743000Y-58928000D03*
X102743000Y-61468000D03*
X102743000Y-64008000D03*
X102743000Y-66548000D03*
X102743000Y-69088000D03*
X102743000Y-71628000D03*
X105283000Y-53848000D03*
X105283000Y-56388000D03*
X105283000Y-58928000D03*
X105283000Y-61468000D03*
X105283000Y-64008000D03*
X105283000Y-66548000D03*
X105283000Y-69088000D03*
X105283000Y-71628000D03*
X107823000Y-53848000D03*
X107823000Y-56388000D03*
X107823000Y-58928000D03*
X107823000Y-61468000D03*
X107823000Y-64008000D03*
X107823000Y-66548000D03*
X107823000Y-69088000D03*
X107823000Y-71628000D03*
X110363000Y-53848000D03*
X110363000Y-56388000D03*
X110363000Y-58928000D03*
X110363000Y-61468000D03*
X110363000Y-64008000D03*
X110363000Y-66548000D03*
X110363000Y-69088000D03*
X110363000Y-71628000D03*
X112903000Y-53848000D03*
X112903000Y-56388000D03*
X112903000Y-58928000D03*
X112903000Y-61468000D03*
X112903000Y-64008000D03*
X112903000Y-66548000D03*
X112903000Y-69088000D03*
X112903000Y-71628000D03*
%TD*%
%TO.C,C1*%
X191603000Y-50038000D03*
X186603000Y-50038000D03*
%TD*%
%TO.C,G3*%
X135763000Y-53848000D03*
X135763000Y-56388000D03*
X135763000Y-58928000D03*
X135763000Y-61468000D03*
X135763000Y-64008000D03*
X135763000Y-66548000D03*
X135763000Y-69088000D03*
X135763000Y-71628000D03*
X138303000Y-53848000D03*
X138303000Y-56388000D03*
X138303000Y-58928000D03*
X138303000Y-61468000D03*
X138303000Y-64008000D03*
X138303000Y-66548000D03*
X138303000Y-69088000D03*
X138303000Y-71628000D03*
X140843000Y-53848000D03*
X140843000Y-56388000D03*
X140843000Y-58928000D03*
X140843000Y-61468000D03*
X140843000Y-64008000D03*
X140843000Y-66548000D03*
X140843000Y-69088000D03*
X140843000Y-71628000D03*
X143383000Y-53848000D03*
X143383000Y-56388000D03*
X143383000Y-58928000D03*
X143383000Y-61468000D03*
X143383000Y-64008000D03*
X143383000Y-66548000D03*
X143383000Y-69088000D03*
X143383000Y-71628000D03*
X145923000Y-53848000D03*
X145923000Y-56388000D03*
X145923000Y-58928000D03*
X145923000Y-61468000D03*
X145923000Y-64008000D03*
X145923000Y-66548000D03*
X145923000Y-69088000D03*
X145923000Y-71628000D03*
X148463000Y-53848000D03*
X148463000Y-56388000D03*
X148463000Y-58928000D03*
X148463000Y-61468000D03*
X148463000Y-64008000D03*
X148463000Y-66548000D03*
X148463000Y-69088000D03*
X148463000Y-71628000D03*
X151003000Y-53848000D03*
X151003000Y-56388000D03*
X151003000Y-58928000D03*
X151003000Y-61468000D03*
X151003000Y-64008000D03*
X151003000Y-66548000D03*
X151003000Y-69088000D03*
X151003000Y-71628000D03*
X153543000Y-53848000D03*
X153543000Y-56388000D03*
X153543000Y-58928000D03*
X153543000Y-61468000D03*
X153543000Y-64008000D03*
X153543000Y-66548000D03*
X153543000Y-69088000D03*
X153543000Y-71628000D03*
%TD*%
M02*
