M48
; DRILL file {KiCad (7.0.0)} date Sun Mar  5 15:13:52 2023
; FORMAT={-:-/ absolute / inch / decimal}
; #@! TF.CreationDate,2023-03-05T15:13:52+10:30
; #@! TF.GenerationSoftware,Kicad,Pcbnew,(7.0.0)
; #@! TF.FileFunction,Plated,1,2,PTH
FMAT,2
INCH
; #@! TA.AperFunction,Plated,PTH,ViaDrill
T1C0.0157
; #@! TA.AperFunction,Plated,PTH,ComponentDrill
T2C0.0315
; #@! TA.AperFunction,Plated,PTH,ComponentDrill
T3C0.0354
; #@! TA.AperFunction,Plated,PTH,ComponentDrill
T4C0.0394
; #@! TA.AperFunction,Plated,PTH,ComponentDrill
T5C0.0984
%
G90
G05
T1
X7.5169Y-4.3488
X7.5554Y-3.7734
X7.9667Y-2.7507
T2
X3.745Y-2.12
X3.745Y-2.22
X3.745Y-2.32
X3.745Y-2.42
X3.745Y-2.52
X3.745Y-2.62
X3.745Y-2.72
X3.745Y-2.82
X3.745Y-2.92
X3.745Y-3.02
X3.745Y-3.12
X3.745Y-3.22
X3.745Y-3.32
X3.745Y-3.42
X3.745Y-3.52
X3.745Y-3.62
X3.745Y-3.72
X3.745Y-3.82
X3.745Y-3.92
X3.745Y-4.02
X3.745Y-4.12
X3.745Y-4.22
X3.745Y-4.32
X3.745Y-4.42
X3.745Y-4.52
X3.745Y-4.62
X3.745Y-4.72
X3.745Y-4.82
X3.745Y-4.92
X3.745Y-5.02
X3.745Y-5.12
X3.745Y-5.22
X3.845Y-2.12
X3.845Y-2.22
X3.845Y-2.32
X3.845Y-2.42
X3.845Y-2.52
X3.845Y-2.62
X3.845Y-2.72
X3.845Y-2.82
X3.845Y-2.92
X3.845Y-3.02
X3.845Y-3.12
X3.845Y-3.22
X3.845Y-3.32
X3.845Y-3.42
X3.845Y-3.52
X3.845Y-3.62
X3.845Y-3.72
X3.845Y-3.82
X3.845Y-3.92
X3.845Y-4.02
X3.845Y-4.12
X3.845Y-4.22
X3.845Y-4.32
X3.845Y-4.42
X3.845Y-4.52
X3.845Y-4.62
X3.845Y-4.72
X3.845Y-4.82
X3.845Y-4.92
X3.845Y-5.02
X3.845Y-5.12
X3.845Y-5.22
X3.945Y-2.12
X3.945Y-2.22
X3.945Y-2.32
X3.945Y-2.42
X3.945Y-2.52
X3.945Y-2.62
X3.945Y-2.72
X3.945Y-2.82
X3.945Y-2.92
X3.945Y-3.02
X3.945Y-3.12
X3.945Y-3.22
X3.945Y-3.32
X3.945Y-3.42
X3.945Y-3.52
X3.945Y-3.62
X3.945Y-3.72
X3.945Y-3.82
X3.945Y-3.92
X3.945Y-4.02
X3.945Y-4.12
X3.945Y-4.22
X3.945Y-4.32
X3.945Y-4.42
X3.945Y-4.52
X3.945Y-4.62
X3.945Y-4.72
X3.945Y-4.82
X3.945Y-4.92
X3.945Y-5.02
X3.945Y-5.12
X3.945Y-5.22
X4.045Y-2.12
X4.045Y-2.22
X4.045Y-2.32
X4.045Y-2.42
X4.045Y-2.52
X4.045Y-2.62
X4.045Y-2.72
X4.045Y-2.82
X4.045Y-2.92
X4.045Y-3.02
X4.045Y-3.12
X4.045Y-3.22
X4.045Y-3.32
X4.045Y-3.42
X4.045Y-3.52
X4.045Y-3.62
X4.045Y-3.72
X4.045Y-3.82
X4.045Y-3.92
X4.045Y-4.02
X4.045Y-4.12
X4.045Y-4.22
X4.045Y-4.32
X4.045Y-4.42
X4.045Y-4.52
X4.045Y-4.62
X4.045Y-4.72
X4.045Y-4.82
X4.045Y-4.92
X4.045Y-5.02
X4.045Y-5.12
X4.045Y-5.22
X4.145Y-2.12
X4.145Y-2.22
X4.145Y-2.32
X4.145Y-2.42
X4.145Y-2.52
X4.145Y-2.62
X4.145Y-2.72
X4.145Y-2.82
X4.145Y-2.92
X4.145Y-3.02
X4.145Y-3.12
X4.145Y-3.22
X4.145Y-3.32
X4.145Y-3.42
X4.145Y-3.52
X4.145Y-3.62
X4.145Y-3.72
X4.145Y-3.82
X4.145Y-3.92
X4.145Y-4.02
X4.145Y-4.12
X4.145Y-4.22
X4.145Y-4.32
X4.145Y-4.42
X4.145Y-4.52
X4.145Y-4.62
X4.145Y-4.72
X4.145Y-4.82
X4.145Y-4.92
X4.145Y-5.02
X4.145Y-5.12
X4.145Y-5.22
X4.245Y-2.12
X4.245Y-2.22
X4.245Y-2.32
X4.245Y-2.42
X4.245Y-2.52
X4.245Y-2.62
X4.245Y-2.72
X4.245Y-2.82
X4.245Y-2.92
X4.245Y-3.02
X4.245Y-3.12
X4.245Y-3.22
X4.245Y-3.32
X4.245Y-3.42
X4.245Y-3.52
X4.245Y-3.62
X4.245Y-3.72
X4.245Y-3.82
X4.245Y-3.92
X4.245Y-4.02
X4.245Y-4.12
X4.245Y-4.22
X4.245Y-4.32
X4.245Y-4.42
X4.245Y-4.52
X4.245Y-4.62
X4.245Y-4.72
X4.245Y-4.82
X4.245Y-4.92
X4.245Y-5.02
X4.245Y-5.12
X4.245Y-5.22
X4.345Y-2.12
X4.345Y-2.22
X4.345Y-2.32
X4.345Y-2.42
X4.345Y-2.52
X4.345Y-2.62
X4.345Y-2.72
X4.345Y-2.82
X4.345Y-2.92
X4.345Y-3.02
X4.345Y-3.12
X4.345Y-3.22
X4.345Y-3.32
X4.345Y-3.42
X4.345Y-3.52
X4.345Y-3.62
X4.345Y-3.72
X4.345Y-3.82
X4.345Y-3.92
X4.345Y-4.02
X4.345Y-4.12
X4.345Y-4.22
X4.345Y-4.32
X4.345Y-4.42
X4.345Y-4.52
X4.345Y-4.62
X4.345Y-4.72
X4.345Y-4.82
X4.345Y-4.92
X4.345Y-5.02
X4.345Y-5.12
X4.345Y-5.22
X4.445Y-2.12
X4.445Y-2.22
X4.445Y-2.32
X4.445Y-2.42
X4.445Y-2.52
X4.445Y-2.62
X4.445Y-2.72
X4.445Y-2.82
X4.445Y-2.92
X4.445Y-3.02
X4.445Y-3.12
X4.445Y-3.22
X4.445Y-3.32
X4.445Y-3.42
X4.445Y-3.52
X4.445Y-3.62
X4.445Y-3.72
X4.445Y-3.82
X4.445Y-3.92
X4.445Y-4.02
X4.445Y-4.12
X4.445Y-4.22
X4.445Y-4.32
X4.445Y-4.42
X4.445Y-4.52
X4.445Y-4.62
X4.445Y-4.72
X4.445Y-4.82
X4.445Y-4.92
X4.445Y-5.02
X4.445Y-5.12
X4.445Y-5.22
X4.545Y-2.12
X4.545Y-2.22
X4.545Y-2.32
X4.545Y-2.42
X4.545Y-2.52
X4.545Y-2.62
X4.545Y-2.72
X4.545Y-2.82
X4.545Y-2.92
X4.545Y-3.02
X4.545Y-3.12
X4.545Y-3.22
X4.545Y-3.32
X4.545Y-3.42
X4.545Y-3.52
X4.545Y-3.62
X4.545Y-3.72
X4.545Y-3.82
X4.545Y-3.92
X4.545Y-4.02
X4.545Y-4.12
X4.545Y-4.22
X4.545Y-4.32
X4.545Y-4.42
X4.545Y-4.52
X4.545Y-4.62
X4.545Y-4.72
X4.545Y-4.82
X4.545Y-4.92
X4.545Y-5.02
X4.545Y-5.12
X4.545Y-5.22
X4.645Y-2.12
X4.645Y-2.22
X4.645Y-2.32
X4.645Y-2.42
X4.645Y-2.52
X4.645Y-2.62
X4.645Y-2.72
X4.645Y-2.82
X4.645Y-2.92
X4.645Y-3.02
X4.645Y-3.12
X4.645Y-3.22
X4.645Y-3.32
X4.645Y-3.42
X4.645Y-3.52
X4.645Y-3.62
X4.645Y-3.72
X4.645Y-3.82
X4.645Y-3.92
X4.645Y-4.02
X4.645Y-4.12
X4.645Y-4.22
X4.645Y-4.32
X4.645Y-4.42
X4.645Y-4.52
X4.645Y-4.62
X4.645Y-4.72
X4.645Y-4.82
X4.645Y-4.92
X4.645Y-5.02
X4.645Y-5.12
X4.645Y-5.22
X4.745Y-2.12
X4.745Y-2.22
X4.745Y-2.32
X4.745Y-2.42
X4.745Y-2.52
X4.745Y-2.62
X4.745Y-2.72
X4.745Y-2.82
X4.745Y-2.92
X4.745Y-3.02
X4.745Y-3.12
X4.745Y-3.22
X4.745Y-3.32
X4.745Y-3.42
X4.745Y-3.52
X4.745Y-3.62
X4.745Y-3.72
X4.745Y-3.82
X4.745Y-3.92
X4.745Y-4.02
X4.745Y-4.12
X4.745Y-4.22
X4.745Y-4.32
X4.745Y-4.42
X4.745Y-4.52
X4.745Y-4.62
X4.745Y-4.72
X4.745Y-4.82
X4.745Y-4.92
X4.745Y-5.02
X4.745Y-5.12
X4.745Y-5.22
X4.845Y-2.12
X4.845Y-2.22
X4.845Y-2.32
X4.845Y-2.42
X4.845Y-2.52
X4.845Y-2.62
X4.845Y-2.72
X4.845Y-2.82
X4.845Y-2.92
X4.845Y-3.02
X4.845Y-3.12
X4.845Y-3.22
X4.845Y-3.32
X4.845Y-3.42
X4.845Y-3.52
X4.845Y-3.62
X4.845Y-3.72
X4.845Y-3.82
X4.845Y-3.92
X4.845Y-4.02
X4.845Y-4.12
X4.845Y-4.22
X4.845Y-4.32
X4.845Y-4.42
X4.845Y-4.52
X4.845Y-4.62
X4.845Y-4.72
X4.845Y-4.82
X4.845Y-4.92
X4.845Y-5.02
X4.845Y-5.12
X4.845Y-5.22
X4.945Y-2.12
X4.945Y-2.22
X4.945Y-2.32
X4.945Y-2.42
X4.945Y-2.52
X4.945Y-2.62
X4.945Y-2.72
X4.945Y-2.82
X4.945Y-2.92
X4.945Y-3.02
X4.945Y-3.12
X4.945Y-3.22
X4.945Y-3.32
X4.945Y-3.42
X4.945Y-3.52
X4.945Y-3.62
X4.945Y-3.72
X4.945Y-3.82
X4.945Y-3.92
X4.945Y-4.02
X4.945Y-4.12
X4.945Y-4.22
X4.945Y-4.32
X4.945Y-4.42
X4.945Y-4.52
X4.945Y-4.62
X4.945Y-4.72
X4.945Y-4.82
X4.945Y-4.92
X4.945Y-5.02
X4.945Y-5.12
X4.945Y-5.22
X5.045Y-2.12
X5.045Y-2.22
X5.045Y-2.32
X5.045Y-2.42
X5.045Y-2.52
X5.045Y-2.62
X5.045Y-2.72
X5.045Y-2.82
X5.045Y-2.92
X5.045Y-3.02
X5.045Y-3.12
X5.045Y-3.22
X5.045Y-3.32
X5.045Y-3.42
X5.045Y-3.52
X5.045Y-3.62
X5.045Y-3.72
X5.045Y-3.82
X5.045Y-3.92
X5.045Y-4.02
X5.045Y-4.12
X5.045Y-4.22
X5.045Y-4.32
X5.045Y-4.42
X5.045Y-4.52
X5.045Y-4.62
X5.045Y-4.72
X5.045Y-4.82
X5.045Y-4.92
X5.045Y-5.02
X5.045Y-5.12
X5.045Y-5.22
X5.145Y-2.12
X5.145Y-2.22
X5.145Y-2.32
X5.145Y-2.42
X5.145Y-2.52
X5.145Y-2.62
X5.145Y-2.72
X5.145Y-2.82
X5.145Y-2.92
X5.145Y-3.02
X5.145Y-3.12
X5.145Y-3.22
X5.145Y-3.32
X5.145Y-3.42
X5.145Y-3.52
X5.145Y-3.62
X5.145Y-3.72
X5.145Y-3.82
X5.145Y-3.92
X5.145Y-4.02
X5.145Y-4.12
X5.145Y-4.22
X5.145Y-4.32
X5.145Y-4.42
X5.145Y-4.52
X5.145Y-4.62
X5.145Y-4.72
X5.145Y-4.82
X5.145Y-4.92
X5.145Y-5.02
X5.145Y-5.12
X5.145Y-5.22
X5.245Y-2.12
X5.245Y-2.22
X5.245Y-2.32
X5.245Y-2.42
X5.245Y-2.52
X5.245Y-2.62
X5.245Y-2.72
X5.245Y-2.82
X5.245Y-2.92
X5.245Y-3.02
X5.245Y-3.12
X5.245Y-3.22
X5.245Y-3.32
X5.245Y-3.42
X5.245Y-3.52
X5.245Y-3.62
X5.245Y-3.72
X5.245Y-3.82
X5.245Y-3.92
X5.245Y-4.02
X5.245Y-4.12
X5.245Y-4.22
X5.245Y-4.32
X5.245Y-4.42
X5.245Y-4.52
X5.245Y-4.62
X5.245Y-4.72
X5.245Y-4.82
X5.245Y-4.92
X5.245Y-5.02
X5.245Y-5.12
X5.245Y-5.22
X5.345Y-2.12
X5.345Y-2.22
X5.345Y-2.32
X5.345Y-2.42
X5.345Y-2.52
X5.345Y-2.62
X5.345Y-2.72
X5.345Y-2.82
X5.345Y-2.92
X5.345Y-3.02
X5.345Y-3.12
X5.345Y-3.22
X5.345Y-3.32
X5.345Y-3.42
X5.345Y-3.52
X5.345Y-3.62
X5.345Y-3.72
X5.345Y-3.82
X5.345Y-3.92
X5.345Y-4.02
X5.345Y-4.12
X5.345Y-4.22
X5.345Y-4.32
X5.345Y-4.42
X5.345Y-4.52
X5.345Y-4.62
X5.345Y-4.72
X5.345Y-4.82
X5.345Y-4.92
X5.345Y-5.02
X5.345Y-5.12
X5.345Y-5.22
X5.445Y-2.12
X5.445Y-2.22
X5.445Y-2.32
X5.445Y-2.42
X5.445Y-2.52
X5.445Y-2.62
X5.445Y-2.72
X5.445Y-2.82
X5.445Y-2.92
X5.445Y-3.02
X5.445Y-3.12
X5.445Y-3.22
X5.445Y-3.32
X5.445Y-3.42
X5.445Y-3.52
X5.445Y-3.62
X5.445Y-3.72
X5.445Y-3.82
X5.445Y-3.92
X5.445Y-4.02
X5.445Y-4.12
X5.445Y-4.22
X5.445Y-4.32
X5.445Y-4.42
X5.445Y-4.52
X5.445Y-4.62
X5.445Y-4.72
X5.445Y-4.82
X5.445Y-4.92
X5.445Y-5.02
X5.445Y-5.12
X5.445Y-5.22
X5.545Y-2.12
X5.545Y-2.22
X5.545Y-2.32
X5.545Y-2.42
X5.545Y-2.52
X5.545Y-2.62
X5.545Y-2.72
X5.545Y-2.82
X5.545Y-2.92
X5.545Y-3.02
X5.545Y-3.12
X5.545Y-3.22
X5.545Y-3.32
X5.545Y-3.42
X5.545Y-3.52
X5.545Y-3.62
X5.545Y-3.72
X5.545Y-3.82
X5.545Y-3.92
X5.545Y-4.02
X5.545Y-4.12
X5.545Y-4.22
X5.545Y-4.32
X5.545Y-4.42
X5.545Y-4.52
X5.545Y-4.62
X5.545Y-4.72
X5.545Y-4.82
X5.545Y-4.92
X5.545Y-5.02
X5.545Y-5.12
X5.545Y-5.22
X5.645Y-2.12
X5.645Y-2.22
X5.645Y-2.32
X5.645Y-2.42
X5.645Y-2.52
X5.645Y-2.62
X5.645Y-2.72
X5.645Y-2.82
X5.645Y-2.92
X5.645Y-3.02
X5.645Y-3.12
X5.645Y-3.22
X5.645Y-3.32
X5.645Y-3.42
X5.645Y-3.52
X5.645Y-3.62
X5.645Y-3.72
X5.645Y-3.82
X5.645Y-3.92
X5.645Y-4.02
X5.645Y-4.12
X5.645Y-4.22
X5.645Y-4.32
X5.645Y-4.42
X5.645Y-4.52
X5.645Y-4.62
X5.645Y-4.72
X5.645Y-4.82
X5.645Y-4.92
X5.645Y-5.02
X5.645Y-5.12
X5.645Y-5.22
X5.745Y-2.12
X5.745Y-2.22
X5.745Y-2.32
X5.745Y-2.42
X5.745Y-2.52
X5.745Y-2.62
X5.745Y-2.72
X5.745Y-2.82
X5.745Y-2.92
X5.745Y-3.02
X5.745Y-3.12
X5.745Y-3.22
X5.745Y-3.32
X5.745Y-3.42
X5.745Y-3.52
X5.745Y-3.62
X5.745Y-3.72
X5.745Y-3.82
X5.745Y-3.92
X5.745Y-4.02
X5.745Y-4.12
X5.745Y-4.22
X5.745Y-4.32
X5.745Y-4.42
X5.745Y-4.52
X5.745Y-4.62
X5.745Y-4.72
X5.745Y-4.82
X5.745Y-4.92
X5.745Y-5.02
X5.745Y-5.12
X5.745Y-5.22
X5.845Y-2.12
X5.845Y-2.22
X5.845Y-2.32
X5.845Y-2.42
X5.845Y-2.52
X5.845Y-2.62
X5.845Y-2.72
X5.845Y-2.82
X5.845Y-2.92
X5.845Y-3.02
X5.845Y-3.12
X5.845Y-3.22
X5.845Y-3.32
X5.845Y-3.42
X5.845Y-3.52
X5.845Y-3.62
X5.845Y-3.72
X5.845Y-3.82
X5.845Y-3.92
X5.845Y-4.02
X5.845Y-4.12
X5.845Y-4.22
X5.845Y-4.32
X5.845Y-4.42
X5.845Y-4.52
X5.845Y-4.62
X5.845Y-4.72
X5.845Y-4.82
X5.845Y-4.92
X5.845Y-5.02
X5.845Y-5.12
X5.845Y-5.22
X5.945Y-2.12
X5.945Y-2.22
X5.945Y-2.32
X5.945Y-2.42
X5.945Y-2.52
X5.945Y-2.62
X5.945Y-2.72
X5.945Y-2.82
X5.945Y-2.92
X5.945Y-3.02
X5.945Y-3.12
X5.945Y-3.22
X5.945Y-3.32
X5.945Y-3.42
X5.945Y-3.52
X5.945Y-3.62
X5.945Y-3.72
X5.945Y-3.82
X5.945Y-3.92
X5.945Y-4.02
X5.945Y-4.12
X5.945Y-4.22
X5.945Y-4.32
X5.945Y-4.42
X5.945Y-4.52
X5.945Y-4.62
X5.945Y-4.72
X5.945Y-4.82
X5.945Y-4.92
X5.945Y-5.02
X5.945Y-5.12
X5.945Y-5.22
X6.045Y-2.12
X6.045Y-2.22
X6.045Y-2.32
X6.045Y-2.42
X6.045Y-2.52
X6.045Y-2.62
X6.045Y-2.72
X6.045Y-2.82
X6.045Y-2.92
X6.045Y-3.02
X6.045Y-3.12
X6.045Y-3.22
X6.045Y-3.32
X6.045Y-3.42
X6.045Y-3.52
X6.045Y-3.62
X6.045Y-3.72
X6.045Y-3.82
X6.045Y-3.92
X6.045Y-4.02
X6.045Y-4.12
X6.045Y-4.22
X6.045Y-4.32
X6.045Y-4.42
X6.045Y-4.52
X6.045Y-4.62
X6.045Y-4.72
X6.045Y-4.82
X6.045Y-4.92
X6.045Y-5.02
X6.045Y-5.12
X6.045Y-5.22
X6.145Y-2.12
X6.145Y-2.22
X6.145Y-2.32
X6.145Y-2.42
X6.145Y-2.52
X6.145Y-2.62
X6.145Y-2.72
X6.145Y-2.82
X6.145Y-2.92
X6.145Y-3.02
X6.145Y-3.12
X6.145Y-3.22
X6.145Y-3.32
X6.145Y-3.42
X6.145Y-3.52
X6.145Y-3.62
X6.145Y-3.72
X6.145Y-3.82
X6.145Y-3.92
X6.145Y-4.02
X6.145Y-4.12
X6.145Y-4.22
X6.145Y-4.32
X6.145Y-4.42
X6.145Y-4.52
X6.145Y-4.62
X6.145Y-4.72
X6.145Y-4.82
X6.145Y-4.92
X6.145Y-5.02
X6.145Y-5.12
X6.145Y-5.22
X6.245Y-2.12
X6.245Y-2.22
X6.245Y-2.32
X6.245Y-2.42
X6.245Y-2.52
X6.245Y-2.62
X6.245Y-2.72
X6.245Y-2.82
X6.245Y-2.92
X6.245Y-3.02
X6.245Y-3.12
X6.245Y-3.22
X6.245Y-3.32
X6.245Y-3.42
X6.245Y-3.52
X6.245Y-3.62
X6.245Y-3.72
X6.245Y-3.82
X6.245Y-3.92
X6.245Y-4.02
X6.245Y-4.12
X6.245Y-4.22
X6.245Y-4.32
X6.245Y-4.42
X6.245Y-4.52
X6.245Y-4.62
X6.245Y-4.72
X6.245Y-4.82
X6.245Y-4.92
X6.245Y-5.02
X6.245Y-5.12
X6.245Y-5.22
X6.345Y-2.12
X6.345Y-2.22
X6.345Y-2.32
X6.345Y-2.42
X6.345Y-2.52
X6.345Y-2.62
X6.345Y-2.72
X6.345Y-2.82
X6.345Y-2.92
X6.345Y-3.02
X6.345Y-3.12
X6.345Y-3.22
X6.345Y-3.32
X6.345Y-3.42
X6.345Y-3.52
X6.345Y-3.62
X6.345Y-3.72
X6.345Y-3.82
X6.345Y-3.92
X6.345Y-4.02
X6.345Y-4.12
X6.345Y-4.22
X6.345Y-4.32
X6.345Y-4.42
X6.345Y-4.52
X6.345Y-4.62
X6.345Y-4.72
X6.345Y-4.82
X6.345Y-4.92
X6.345Y-5.02
X6.345Y-5.12
X6.345Y-5.22
X6.445Y-2.12
X6.445Y-2.22
X6.445Y-2.32
X6.445Y-2.42
X6.445Y-2.52
X6.445Y-2.62
X6.445Y-2.72
X6.445Y-2.82
X6.445Y-2.92
X6.445Y-3.02
X6.445Y-3.12
X6.445Y-3.22
X6.445Y-3.32
X6.445Y-3.42
X6.445Y-3.52
X6.445Y-3.62
X6.445Y-3.72
X6.445Y-3.82
X6.445Y-3.92
X6.445Y-4.02
X6.445Y-4.12
X6.445Y-4.22
X6.445Y-4.32
X6.445Y-4.42
X6.445Y-4.52
X6.445Y-4.62
X6.445Y-4.72
X6.445Y-4.82
X6.445Y-4.92
X6.445Y-5.02
X6.445Y-5.12
X6.445Y-5.22
X6.545Y-2.12
X6.545Y-2.22
X6.545Y-2.32
X6.545Y-2.42
X6.545Y-2.52
X6.545Y-2.62
X6.545Y-2.72
X6.545Y-2.82
X6.545Y-2.92
X6.545Y-3.02
X6.545Y-3.12
X6.545Y-3.22
X6.545Y-3.32
X6.545Y-3.42
X6.545Y-3.52
X6.545Y-3.62
X6.545Y-3.72
X6.545Y-3.82
X6.545Y-3.92
X6.545Y-4.02
X6.545Y-4.12
X6.545Y-4.22
X6.545Y-4.32
X6.545Y-4.42
X6.545Y-4.52
X6.545Y-4.62
X6.545Y-4.72
X6.545Y-4.82
X6.545Y-4.92
X6.545Y-5.02
X6.545Y-5.12
X6.545Y-5.22
X6.645Y-2.12
X6.645Y-2.22
X6.645Y-2.32
X6.645Y-2.42
X6.645Y-2.52
X6.645Y-2.62
X6.645Y-2.72
X6.645Y-2.82
X6.645Y-2.92
X6.645Y-3.02
X6.645Y-3.12
X6.645Y-3.22
X6.645Y-3.32
X6.645Y-3.42
X6.645Y-3.52
X6.645Y-3.62
X6.645Y-3.72
X6.645Y-3.82
X6.645Y-3.92
X6.645Y-4.02
X6.645Y-4.12
X6.645Y-4.22
X6.645Y-4.32
X6.645Y-4.42
X6.645Y-4.52
X6.645Y-4.62
X6.645Y-4.72
X6.645Y-4.82
X6.645Y-4.92
X6.645Y-5.02
X6.645Y-5.12
X6.645Y-5.22
X6.745Y-2.12
X6.745Y-2.22
X6.745Y-2.32
X6.745Y-2.42
X6.745Y-2.52
X6.745Y-2.62
X6.745Y-2.72
X6.745Y-2.82
X6.745Y-2.92
X6.745Y-3.02
X6.745Y-3.12
X6.745Y-3.22
X6.745Y-3.32
X6.745Y-3.42
X6.745Y-3.52
X6.745Y-3.62
X6.745Y-3.72
X6.745Y-3.82
X6.745Y-3.92
X6.745Y-4.02
X6.745Y-4.12
X6.745Y-4.22
X6.745Y-4.32
X6.745Y-4.42
X6.745Y-4.52
X6.745Y-4.62
X6.745Y-4.72
X6.745Y-4.82
X6.745Y-4.92
X6.745Y-5.02
X6.745Y-5.12
X6.745Y-5.22
X6.845Y-2.12
X6.845Y-2.22
X6.845Y-2.32
X6.845Y-2.42
X6.845Y-2.52
X6.845Y-2.62
X6.845Y-2.72
X6.845Y-2.82
X6.845Y-2.92
X6.845Y-3.02
X6.845Y-3.12
X6.845Y-3.22
X6.845Y-3.32
X6.845Y-3.42
X6.845Y-3.52
X6.845Y-3.62
X6.845Y-3.72
X6.845Y-3.82
X6.845Y-3.92
X6.845Y-4.02
X6.845Y-4.12
X6.845Y-4.22
X6.845Y-4.32
X6.845Y-4.42
X6.845Y-4.52
X6.845Y-4.62
X6.845Y-4.72
X6.845Y-4.82
X6.845Y-4.92
X6.845Y-5.02
X6.845Y-5.12
X6.845Y-5.22
X7.2924Y-2.1202
X7.2924Y-2.2202
X7.2924Y-2.3202
X7.2924Y-2.4202
X7.2924Y-2.5202
X7.2924Y-2.6202
X7.2924Y-2.7202
X7.2924Y-2.8202
X7.2924Y-2.9202
X7.2924Y-3.0202
X7.2924Y-3.2192
X7.2924Y-3.3192
X7.2924Y-3.4192
X7.2924Y-3.5192
X7.2924Y-3.6192
X7.2924Y-3.7192
X7.2924Y-3.8192
X7.2924Y-3.9192
X7.2924Y-4.0192
X7.2924Y-4.1192
X7.2924Y-4.3202
X7.2924Y-4.4202
X7.2924Y-4.5202
X7.2924Y-4.6202
X7.2924Y-4.7202
X7.2924Y-4.8202
X7.2924Y-4.9202
X7.2924Y-5.0202
X7.2924Y-5.1202
X7.2924Y-5.2202
X7.3466Y-1.97
X7.48Y-5.47
X7.5434Y-1.97
X7.5924Y-2.1202
X7.5924Y-2.2202
X7.5924Y-2.3202
X7.5924Y-2.4202
X7.5924Y-2.5202
X7.5924Y-2.6202
X7.5924Y-2.7202
X7.5924Y-2.8202
X7.5924Y-2.9202
X7.5924Y-3.0202
X7.5924Y-3.2192
X7.5924Y-3.3192
X7.5924Y-3.4192
X7.5924Y-3.5192
X7.5924Y-3.6192
X7.5924Y-3.7192
X7.5924Y-3.8192
X7.5924Y-3.9192
X7.5924Y-4.0192
X7.5924Y-4.1192
X7.5924Y-4.3202
X7.5924Y-4.4202
X7.5924Y-4.5202
X7.5924Y-4.6202
X7.5924Y-4.7202
X7.5924Y-4.8202
X7.5924Y-4.9202
X7.5924Y-5.0202
X7.5924Y-5.1202
X7.5924Y-5.2202
X7.81Y-2.115
X7.81Y-2.515
X7.88Y-5.47
T3
X8.035Y-2.265
X8.035Y-2.365
T4
X5.395Y-5.47
X5.495Y-5.47
X5.595Y-5.47
X5.695Y-5.47
X5.795Y-5.47
X5.895Y-5.47
X5.995Y-5.47
X6.095Y-5.47
X6.4136Y-5.47
X6.5136Y-5.47
X6.6136Y-5.47
X6.7136Y-5.47
X6.8136Y-5.47
X6.9136Y-5.47
X7.0136Y-5.47
X7.091Y-2.22
X7.091Y-2.32
X7.091Y-2.42
X7.091Y-2.52
X7.091Y-2.62
X7.091Y-2.72
X7.091Y-2.82
X7.091Y-2.92
X7.091Y-3.3186
X7.091Y-3.4186
X7.091Y-3.5186
X7.091Y-3.6186
X7.091Y-3.7186
X7.091Y-3.8186
X7.091Y-3.9186
X7.091Y-4.0186
X7.091Y-4.42
X7.091Y-4.52
X7.091Y-4.62
X7.091Y-4.72
X7.091Y-4.82
X7.091Y-4.92
X7.091Y-5.02
X7.091Y-5.12
X7.1136Y-5.47
X7.32Y-5.47
X7.8204Y-2.695
X7.92Y-3.17
X7.92Y-3.27
X7.92Y-3.37
X7.92Y-3.47
X7.92Y-3.57
X7.92Y-3.67
X7.92Y-3.77
X7.92Y-3.87
X7.92Y-3.97
X7.92Y-4.07
X7.92Y-4.17
X7.92Y-4.27
X7.92Y-4.37
X7.92Y-4.47
X7.92Y-4.57
X7.92Y-4.67
X7.92Y-4.77
X7.92Y-4.87
X7.92Y-4.97
X7.92Y-5.07
X7.9204Y-2.695
X8.02Y-3.17
X8.02Y-3.27
X8.02Y-3.37
X8.02Y-3.47
X8.02Y-3.57
X8.02Y-3.67
X8.02Y-3.77
X8.02Y-3.87
X8.02Y-3.97
X8.02Y-4.07
X8.02Y-4.17
X8.02Y-4.27
X8.02Y-4.37
X8.02Y-4.47
X8.02Y-4.57
X8.02Y-4.67
X8.02Y-4.77
X8.02Y-4.87
X8.02Y-4.97
X8.02Y-5.07
X8.0204Y-2.695
X8.1204Y-2.695
T5
X3.595Y-1.97
X3.595Y-5.47
X8.085Y-5.47
X8.095Y-1.97
T0
M30
